<svg xmlns="http://www.w3.org/2000/svg" viewBox="0 0 128 128">
  <path d="M 119.994 67.865 L 119.994 67.938 L 119.993 68.010 L 119.991 68.082 L 119.988 68.154 L 119.985 68.226 L 119.981 68.298 L 119.977 68.369 L 119.971 68.441 L 119.965 68.513 L 119.959 68.584 L 119.951 68.656 L 119.943 68.727 L 119.934 68.799 L 119.925 68.870 L 119.914 68.941 L 119.903 69.012 L 119.892 69.083 L 119.879 69.154 L 119.866 69.224 L 119.853 69.295 L 119.838 69.365 L 119.823 69.435 L 119.807 69.505 L 119.791 69.575 L 119.773 69.645 L 119.756 69.715 L 119.737 69.784 L 119.718 69.853 L 119.698 69.922 L 119.677 69.991 L 119.656 70.060 L 119.634 70.128 L 119.611 70.197 L 119.588 70.265 L 119.564 70.333 L 119.539 70.400 L 119.514 70.468 L 119.487 70.535 L 119.461 70.602 L 119.433 70.669 L 119.405 70.735 L 119.376 70.801 L 119.347 70.867 L 119.317 70.933 L 119.286 70.998 L 119.255 71.063 L 119.223 71.127 L 119.191 71.191 L 119.158 71.255 L 119.124 71.319 L 119.089 71.382 L 119.054 71.445 L 119.019 71.507 L 118.983 71.569 L 118.946 71.631 L 118.908 71.692 L 118.870 71.753 L 118.832 71.813 L 118.793 71.874 L 118.753 71.933 L 118.712 71.993 L 118.671 72.052 L 118.630 72.110 L 118.588 72.169 L 118.545 72.226 L 118.502 72.284 L 118.458 72.341 L 118.413 72.397 L 118.368 72.453 L 118.323 72.509 L 118.277 72.564 L 118.230 72.619 L 118.183 72.673 L 118.135 72.727 L 118.087 72.780 L 118.038 72.833 L 117.988 72.886 L 117.938 72.938 L 117.888 72.989 L 117.837 73.040 L 117.785 73.091 L 117.734 73.141 L 117.681 73.190 L 117.628 73.239 L 117.575 73.288 L 117.521 73.335 L 117.467 73.383 L 117.412 73.429 L 117.357 73.476 L 117.301 73.521 L 117.245 73.566 L 117.189 73.611 L 117.132 73.655 L 117.075 73.698 L 117.017 73.741 L 116.959 73.783 L 116.900 73.824 L 116.841 73.866 L 116.782 73.906 L 116.722 73.946 L 116.662 73.985 L 116.602 74.024 L 116.541 74.062 L 116.479 74.099 L 116.418 74.136 L 116.356 74.173 L 116.293 74.208 L 116.231 74.243 L 116.167 74.278 L 116.104 74.312 L 116.040 74.345 L 115.976 74.377 L 115.912 74.409 L 115.847 74.441 L 115.782 74.471 L 115.716 74.501 L 115.650 74.531 L 115.584 74.560 L 115.518 74.588 L 115.451 74.615 L 115.384 74.642 L 115.317 74.668 L 115.249 74.694 L 115.182 74.719 L 115.114 74.743 L 115.046 74.766 L 114.977 74.789 L 114.909 74.811 L 114.840 74.833 L 114.771 74.853 L 114.701 74.873 L 114.632 74.893 L 114.562 74.911 L 114.493 74.929 L 114.423 74.947 L 114.352 74.963 L 114.282 74.979 L 114.212 74.994 L 114.141 75.009 L 114.070 75.023 L 113.999 75.036 L 113.928 75.048 L 113.857 75.060 L 113.786 75.071 L 113.714 75.081 L 113.643 75.091 L 113.571 75.100 L 113.500 75.108 L 113.428 75.116 L 113.356 75.122 L 113.285 75.128 L 113.213 75.134 L 113.141 75.138 L 113.069 75.142 L 112.997 75.146 L 112.925 75.148 L 112.853 75.150 L 112.780 75.151 L 112.708 75.151 L 97.394 75.151 L 92.654 92.843 L 119.994 92.843 L 119.994 92.950 L 119.994 93.058 L 119.994 93.165 L 119.994 93.272 L 119.994 93.379 L 119.994 93.487 L 119.994 93.594 L 119.994 93.701 L 119.994 93.808 L 119.994 93.916 L 119.994 94.023 L 119.994 94.130 L 119.994 94.237 L 119.994 94.345 L 119.994 94.452 L 119.994 94.559 L 119.994 94.666 L 119.994 94.774 L 119.994 94.881 L 119.994 94.988 L 119.994 95.095 L 119.994 95.203 L 119.994 95.310 L 119.994 95.417 L 119.995 95.525 L 119.996 95.635 L 119.998 95.747 L 119.999 95.860 L 120.000 95.973 L 119.999 96.085 L 119.995 96.196 L 119.988 96.306 L 119.977 96.413 L 119.962 96.519 L 119.943 96.626 L 119.921 96.733 L 119.894 96.840 L 119.865 96.948 L 119.833 97.055 L 119.799 97.162 L 119.762 97.268 L 119.724 97.372 L 119.685 97.474 L 119.644 97.574 L 119.603 97.674 L 119.558 97.776 L 119.512 97.879 L 119.463 97.984 L 119.412 98.091 L 119.359 98.199 L 119.303 98.309 L 119.245 98.420 L 119.185 98.532 L 119.123 98.646 L 119.059 98.762 L 118.992 98.879 L 118.923 98.997 L 118.853 99.117 L 118.779 99.238 L 118.704 99.360 L 118.627 99.484 L 118.547 99.608 L 118.466 99.734 L 118.382 99.862 L 118.296 99.990 L 118.208 100.120 L 118.118 100.250 L 118.027 100.382 L 117.933 100.514 L 117.838 100.647 L 117.741 100.780 L 117.643 100.914 L 117.543 101.049 L 117.441 101.183 L 117.338 101.318 L 117.233 101.454 L 117.127 101.590 L 117.020 101.726 L 116.911 101.863 L 116.801 101.999 L 116.689 102.136 L 116.576 102.273 L 116.462 102.411 L 116.347 102.548 L 116.230 102.686 L 116.112 102.823 L 115.993 102.961 L 115.873 103.099 L 115.751 103.236 L 115.629 103.374 L 115.505 103.511 L 115.380 103.649 L 115.255 103.786 L 115.128 103.923 L 115.001 104.060 L 114.872 104.196 L 114.743 104.332 L 114.612 104.468 L 114.481 104.604 L 114.349 104.739 L 114.217 104.874 L 114.083 105.009 L 113.949 105.143 L 113.814 105.276 L 113.678 105.409 L 113.542 105.541 L 113.405 105.673 L 113.268 105.804 L 113.129 105.935 L 112.991 106.065 L 112.852 106.194 L 112.712 106.322 L 112.572 106.450 L 112.431 106.577 L 112.290 106.703 L 112.148 106.829 L 112.004 106.955 L 111.860 107.081 L 111.714 107.206 L 111.568 107.330 L 111.420 107.455 L 111.272 107.578 L 111.123 107.701 L 110.973 107.823 L 110.822 107.944 L 110.671 108.065 L 110.519 108.184 L 110.366 108.302 L 110.214 108.419 L 110.060 108.535 L 109.907 108.650 L 109.753 108.763 L 109.598 108.875 L 109.444 108.985 L 109.290 109.093 L 109.135 109.200 L 108.978 109.307 L 108.819 109.412 L 108.659 109.517 L 108.498 109.620 L 108.335 109.722 L 108.172 109.822 L 108.007 109.920 L 107.842 110.016 L 107.677 110.109 L 107.512 110.199 L 107.345 110.287 L 107.175 110.374 L 107.002 110.458 L 106.827 110.539 L 106.652 110.616 L 106.475 110.688 L 106.299 110.755 L 106.115 110.818 L 105.924 110.876 L 105.729 110.926 L 105.532 110.966 L 105.336 110.991 L 105.146 111.001 L 23.712 111.001 L 23.604 110.998 L 23.495 110.990 L 23.385 110.977 L 23.275 110.959 L 23.165 110.938 L 23.055 110.914 L 22.947 110.887 L 22.841 110.858 L 22.737 110.826 L 22.635 110.794 L 22.532 110.759 L 22.430 110.722 L 22.327 110.683 L 22.225 110.642 L 22.122 110.600 L 22.020 110.557 L 21.918 110.512 L 21.816 110.466 L 21.716 110.418 L 21.616 110.370 L 21.517 110.322 L 21.419 110.272 L 21.322 110.222 L 21.226 110.172 L 21.132 110.121 L 21.036 110.069 L 20.940 110.016 L 20.843 109.961 L 20.746 109.905 L 20.647 109.848 L 20.548 109.789 L 20.448 109.730 L 20.348 109.668 L 20.246 109.606 L 20.145 109.542 L 20.042 109.477 L 19.939 109.411 L 19.835 109.344 L 19.731 109.275 L 19.626 109.205 L 19.520 109.134 L 19.414 109.062 L 19.307 108.988 L 19.200 108.914 L 19.092 108.838 L 18.984 108.761 L 18.875 108.683 L 18.766 108.604 L 18.656 108.524 L 18.546 108.442 L 18.435 108.360 L 18.324 108.276 L 18.213 108.192 L 18.101 108.106 L 17.989 108.019 L 17.876 107.932 L 17.763 107.843 L 17.650 107.753 L 17.537 107.662 L 17.423 107.571 L 17.309 107.478 L 17.194 107.384 L 17.080 107.289 L 16.965 107.194 L 16.850 107.097 L 16.735 107.000 L 16.619 106.901 L 16.504 106.803 L 16.389 106.703 L 16.274 106.603 L 16.159 106.502 L 16.045 106.401 L 15.930 106.299 L 15.816 106.196 L 15.702 106.093 L 15.588 105.990 L 15.475 105.886 L 15.362 105.781 L 15.249 105.676 L 15.136 105.571 L 15.024 105.465 L 14.912 105.358 L 14.800 105.252 L 14.689 105.144 L 14.578 105.037 L 14.467 104.929 L 14.357 104.821 L 14.247 104.712 L 14.137 104.603 L 14.028 104.494 L 13.920 104.385 L 13.812 104.275 L 13.704 104.165 L 13.597 104.054 L 13.490 103.944 L 13.384 103.833 L 13.279 103.722 L 13.174 103.611 L 13.069 103.500 L 12.965 103.388 L 12.862 103.277 L 12.759 103.165 L 12.657 103.053 L 12.555 102.941 L 12.455 102.829 L 12.354 102.717 L 12.255 102.605 L 12.156 102.493 L 12.058 102.381 L 11.960 102.269 L 11.863 102.156 L 11.767 102.044 L 11.672 101.932 L 11.577 101.820 L 11.483 101.708 L 11.390 101.596 L 11.298 101.484 L 11.207 101.373 L 11.116 101.261 L 11.026 101.150 L 10.937 101.039 L 10.849 100.928 L 10.762 100.817 L 10.676 100.706 L 10.591 100.596 L 10.506 100.486 L 10.423 100.376 L 10.340 100.266 L 10.258 100.157 L 10.178 100.048 L 10.098 99.939 L 10.020 99.830 L 9.942 99.722 L 9.865 99.615 L 9.790 99.507 L 9.715 99.400 L 9.642 99.294 L 9.570 99.188 L 9.498 99.082 L 9.428 98.977 L 9.359 98.872 L 9.291 98.768 L 9.224 98.663 L 9.155 98.553 L 9.081 98.436 L 9.005 98.312 L 8.927 98.182 L 8.847 98.047 L 8.765 97.907 L 8.683 97.762 L 8.601 97.613 L 8.519 97.460 L 8.438 97.305 L 8.358 97.147 L 8.280 96.987 L 8.205 96.825 L 8.133 96.662 L 8.064 96.499 L 8.000 96.336 L 40.100 87.735 L 40.100 94.406 L 40.108 94.737 L 40.134 95.067 L 40.178 95.396 L 40.238 95.722 L 40.315 96.044 L 40.410 96.362 L 40.520 96.674 L 40.647 96.980 L 40.790 97.279 L 40.948 97.571 L 41.121 97.853 L 41.309 98.126 L 41.510 98.389 L 41.726 98.641 L 41.954 98.882 L 42.194 99.110 L 42.446 99.325 L 42.709 99.527 L 42.982 99.714 L 43.265 99.888 L 43.556 100.046 L 43.855 100.188 L 44.161 100.315 L 44.474 100.426 L 44.791 100.520 L 45.114 100.597 L 45.440 100.658 L 45.768 100.701 L 46.098 100.727 L 46.430 100.736 L 60.365 100.736 L 78.096 34.562 L 78.185 34.191 L 78.255 33.816 L 78.305 33.437 L 78.334 33.057 L 78.344 32.676 L 78.334 32.295 L 78.305 31.914 L 78.255 31.536 L 78.185 31.161 L 78.096 30.790 L 77.988 30.424 L 77.861 30.065 L 77.715 29.712 L 77.550 29.368 L 77.368 29.033 L 77.169 28.708 L 76.953 28.393 L 76.721 28.091 L 76.473 27.801 L 76.210 27.524 L 75.934 27.261 L 75.644 27.014 L 75.341 26.781 L 75.027 26.565 L 74.702 26.366 L 74.366 26.184 L 74.022 26.020 L 73.670 25.874 L 73.310 25.747 L 72.944 25.638 L 72.573 25.549 L 72.198 25.480 L 71.820 25.430 L 71.440 25.400 L 71.059 25.390 L 45.762 25.390 L 45.431 25.399 L 45.100 25.425 L 44.772 25.468 L 44.446 25.528 L 44.123 25.606 L 43.806 25.700 L 43.493 25.810 L 43.187 25.937 L 42.888 26.080 L 42.597 26.238 L 42.314 26.411 L 42.041 26.599 L 41.778 26.801 L 41.526 27.016 L 41.286 27.244 L 41.058 27.484 L 40.842 27.736 L 40.641 27.999 L 40.453 28.272 L 40.280 28.555 L 29.238 47.681 L 29.079 47.973 L 28.936 48.274 L 28.808 48.582 L 28.697 48.896 L 28.603 49.215 L 28.526 49.539 L 28.466 49.866 L 28.423 50.197 L 28.397 50.529 L 28.390 50.862 L 28.399 51.194 L 28.426 51.526 L 28.471 51.856 L 28.532 52.183 L 28.611 52.507 L 28.707 52.826 L 28.820 53.139 L 28.948 53.446 L 29.093 53.746 L 29.253 54.038 L 29.429 54.321 L 29.619 54.594 L 29.823 54.857 L 30.041 55.109 L 30.271 55.349 L 30.514 55.577 L 30.769 55.792 L 31.035 55.993 L 31.310 56.179 L 31.596 56.351 L 31.889 56.508 L 32.191 56.649 L 32.500 56.774 L 32.814 56.882 L 33.135 56.974 L 33.459 57.049 L 33.787 57.107 L 34.117 57.147 L 34.450 57.170 L 34.783 57.175 L 48.451 57.039 L 55.876 44.179 L 67.266 44.179 L 67.432 44.183 L 67.598 44.197 L 67.763 44.219 L 67.926 44.250 L 68.087 44.290 L 68.246 44.338 L 68.402 44.395 L 68.555 44.461 L 68.704 44.534 L 68.849 44.616 L 68.989 44.705 L 69.124 44.801 L 69.254 44.905 L 69.378 45.016 L 69.496 45.133 L 69.608 45.256 L 69.713 45.385 L 69.810 45.519 L 69.900 45.659 L 69.983 45.803 L 70.057 45.952 L 70.124 46.104 L 70.182 46.260 L 70.232 46.418 L 70.273 46.579 L 70.306 46.742 L 70.329 46.907 L 70.344 47.072 L 70.350 47.238 L 70.346 47.404 L 70.334 47.570 L 70.313 47.735 L 70.283 47.898 L 70.245 48.060 L 62.864 75.604 L 16.226 76.092 L 15.842 76.086 L 15.459 76.060 L 15.077 76.013 L 14.699 75.947 L 14.325 75.861 L 13.956 75.755 L 13.593 75.629 L 13.237 75.485 L 12.889 75.323 L 12.550 75.142 L 12.222 74.943 L 11.904 74.728 L 11.598 74.496 L 11.304 74.248 L 11.024 73.985 L 10.759 73.708 L 10.508 73.417 L 10.273 73.114 L 10.054 72.798 L 9.852 72.472 L 9.668 72.135 L 9.502 71.789 L 9.354 71.434 L 9.225 71.073 L 9.115 70.705 L 9.025 70.331 L 8.954 69.954 L 8.904 69.573 L 8.874 69.191 L 8.863 68.807 L 8.863 31.848 L 8.866 31.743 L 8.875 31.637 L 8.888 31.530 L 8.905 31.422 L 8.926 31.315 L 8.951 31.209 L 8.978 31.104 L 9.008 31.001 L 9.039 30.901 L 9.071 30.801 L 9.107 30.702 L 9.144 30.602 L 9.182 30.502 L 9.223 30.402 L 9.265 30.302 L 9.309 30.203 L 9.353 30.104 L 9.399 30.006 L 9.446 29.908 L 9.494 29.812 L 9.542 29.716 L 9.590 29.622 L 9.639 29.529 L 9.689 29.437 L 9.740 29.344 L 9.792 29.250 L 9.846 29.155 L 9.901 29.060 L 9.957 28.964 L 10.015 28.867 L 10.074 28.769 L 10.134 28.671 L 10.196 28.572 L 10.259 28.472 L 10.323 28.372 L 10.388 28.271 L 10.455 28.169 L 10.523 28.067 L 10.592 27.964 L 10.663 27.861 L 10.734 27.757 L 10.807 27.652 L 10.881 27.547 L 10.956 27.442 L 11.032 27.335 L 11.110 27.229 L 11.188 27.122 L 11.268 27.014 L 11.349 26.906 L 11.431 26.798 L 11.514 26.689 L 11.598 26.580 L 11.683 26.471 L 11.769 26.361 L 11.856 26.251 L 11.944 26.140 L 12.034 26.029 L 12.124 25.918 L 12.215 25.807 L 12.307 25.695 L 12.401 25.583 L 12.495 25.471 L 12.590 25.359 L 12.686 25.247 L 12.782 25.134 L 12.880 25.022 L 12.977 24.910 L 13.076 24.799 L 13.175 24.687 L 13.274 24.576 L 13.374 24.465 L 13.475 24.354 L 13.576 24.243 L 13.678 24.133 L 13.780 24.023 L 13.883 23.913 L 13.986 23.804 L 14.089 23.694 L 14.193 23.586 L 14.298 23.477 L 14.403 23.369 L 14.508 23.261 L 14.613 23.154 L 14.719 23.047 L 14.825 22.941 L 14.932 22.835 L 15.038 22.729 L 15.146 22.624 L 15.253 22.520 L 15.360 22.415 L 15.468 22.312 L 15.576 22.209 L 15.684 22.106 L 15.793 22.004 L 15.901 21.903 L 16.010 21.802 L 16.119 21.702 L 16.228 21.603 L 16.337 21.504 L 16.446 21.405 L 16.555 21.308 L 16.664 21.211 L 16.773 21.115 L 16.883 21.019 L 16.992 20.924 L 17.101 20.830 L 17.210 20.737 L 17.320 20.644 L 17.429 20.553 L 17.538 20.462 L 17.647 20.372 L 17.755 20.282 L 17.864 20.194 L 17.973 20.106 L 18.081 20.019 L 18.189 19.934 L 18.297 19.849 L 18.405 19.764 L 18.512 19.681 L 18.620 19.599 L 18.727 19.518 L 18.834 19.438 L 18.940 19.358 L 19.046 19.280 L 19.152 19.203 L 19.258 19.127 L 19.363 19.051 L 19.467 18.977 L 19.572 18.904 L 19.676 18.832 L 19.779 18.761 L 19.882 18.692 L 19.985 18.623 L 20.087 18.556 L 20.189 18.489 L 20.290 18.424 L 20.397 18.356 L 20.511 18.285 L 20.632 18.211 L 20.758 18.134 L 20.891 18.056 L 21.028 17.977 L 21.170 17.897 L 21.317 17.816 L 21.466 17.737 L 21.619 17.658 L 21.773 17.582 L 21.930 17.507 L 22.088 17.435 L 22.247 17.367 L 22.406 17.303 L 22.565 17.243 L 22.723 17.188 L 22.880 17.139 L 23.042 17.094 L 23.209 17.056 L 23.378 17.026 L 23.546 17.006 L 23.712 16.999 L 105.146 16.999 L 105.409 17.016 L 105.673 17.061 L 105.928 17.125 L 106.181 17.204 L 106.436 17.296 L 106.690 17.400 L 106.940 17.513 L 107.184 17.631 L 107.419 17.751 L 107.652 17.877 L 107.890 18.012 L 108.133 18.155 L 108.380 18.306 L 108.631 18.465 L 108.886 18.632 L 109.144 18.806 L 109.406 18.988 L 109.671 19.178 L 109.938 19.374 L 110.209 19.577 L 110.481 19.786 L 110.756 20.002 L 111.032 20.225 L 111.310 20.453 L 111.589 20.687 L 111.868 20.926 L 112.149 21.171 L 112.430 21.421 L 112.711 21.676 L 112.992 21.936 L 113.272 22.199 L 113.551 22.467 L 113.829 22.738 L 114.105 23.013 L 114.379 23.291 L 114.651 23.572 L 114.920 23.855 L 115.187 24.141 L 115.451 24.429 L 115.711 24.719 L 115.967 25.010 L 116.220 25.303 L 116.468 25.597 L 116.711 25.891 L 116.950 26.186 L 117.183 26.481 L 117.410 26.777 L 117.631 27.070 L 117.842 27.358 L 118.044 27.642 L 118.236 27.921 L 118.420 28.195 L 118.594 28.464 L 118.758 28.727 L 118.912 28.984 L 119.057 29.235 L 119.192 29.480 L 119.317 29.718 L 119.431 29.949 L 119.536 30.173 L 119.629 30.389 L 119.713 30.599 L 119.785 30.799 L 119.845 30.987 L 119.892 31.166 L 119.928 31.345 L 119.954 31.532 L 119.973 31.736 L 119.984 31.963 L 119.991 32.224 L 119.993 32.525 L 119.994 32.875 L 119.994 33.272 L 119.994 33.674 L 119.994 34.076 L 119.994 34.478 L 119.994 34.881 L 119.994 35.283 L 119.994 35.685 L 119.994 36.087 L 119.994 36.490 L 119.994 36.892 L 119.994 37.294 L 119.994 37.696 L 119.994 38.099 L 119.994 38.501 L 119.994 38.903 L 119.994 39.305 L 119.994 39.708 L 119.994 40.110 L 119.994 40.512 L 119.994 40.914 L 119.994 41.317 L 119.994 41.719 L 119.994 42.121 L 119.994 42.523 L 119.994 42.926 L 119.994 43.328 L 119.994 43.730 L 119.994 44.132 L 119.994 44.535 L 119.994 44.937 L 119.994 45.339 L 119.994 45.741 L 119.994 46.144 L 119.994 46.546 L 119.994 46.948 L 119.994 47.350 L 119.994 47.753 L 119.994 48.155 L 119.994 48.557 L 119.994 48.960 L 119.994 49.362 L 119.994 49.764 L 119.994 50.166 L 119.994 50.569 L 119.994 50.971 L 119.994 51.373 L 119.994 51.775 L 119.994 52.178 L 119.994 52.580 L 119.994 52.982 L 119.994 53.384 L 119.994 53.787 L 119.994 54.189 L 119.994 54.591 L 119.994 54.993 L 119.994 55.396 L 119.994 55.798 L 119.994 56.200 L 119.994 56.602 L 119.994 57.005 L 119.994 57.407 L 119.994 57.809 L 119.994 58.211 L 119.994 58.614 L 119.994 59.016 L 119.994 59.418 L 119.994 59.820 L 119.994 60.223 L 119.994 60.625 L 119.994 61.027 L 119.994 61.429 L 119.994 61.832 L 119.994 62.234 L 119.994 62.636 L 119.994 63.038 L 119.994 63.441 L 119.994 63.843 L 119.994 64.245 L 119.994 64.647 L 119.994 65.050 L 119.994 65.452 L 119.994 65.854 L 119.994 66.256 L 119.994 66.659 L 119.994 67.061 L 119.994 67.463 L 119.994 67.865 Z" fill="#000" fill-rule="evenodd"/>
</svg>
